<?xml version="1.0" encoding="UTF-8"?>
<svg id="Layer_1" xmlns="http://www.w3.org/2000/svg" viewBox="0 0 104.34 299.44">
  <defs>
    <style>
      .cls-1 {
        fill: #a76f55;
      }

      .cls-2 {
        fill: #f2f2f3;
      }

      .cls-3 {
        fill: #444545;
      }

      .cls-4 {
        fill: #252828;
      }

      .cls-5 {
        fill: #4c2318;
      }

      .cls-6 {
        fill: #3a3a3a;
      }

      .cls-7 {
        fill: #2b2a2a;
      }

      .cls-8 {
        fill: #636464;
      }

      .cls-9 {
        fill: #5b2d21;
      }
    </style>
  </defs>
  <path class="cls-2" d="M38.66,52.61l5.12,7s1.11,3.41,8.19,4.09,12.8-5.55,12.8-5.55l2.73-3.5h5.63l-1.19,30.71-.85,15.01-1.71,9.73,1.71,20.3-6.82,9.9h-12.28l-3.41-10.41-7.85-41.8-2.05-35.49Z"/>
  <polygon class="cls-1" points="13.83 266.64 12.21 276.37 17.22 277.76 20.86 281.18 21.99 276.4 21.99 268.21 13.83 266.64"/>
  <polygon class="cls-1" points="63.62 261.16 63.62 271.51 61.8 275.26 63.62 278.22 69.77 278.22 69.77 273.21 69.77 263.66 63.62 261.16"/>
  <path class="cls-7" d="M18.53,276.37s-1.32.64-1.54.68-5.46-.68-5.46-.68l-1.58,3.53-4.39,6.37s-2.18,1.79-2.56,2.22-2.82,7.42-2.82,7.42c0,0-.74,2.29.77,3.07,1.67.86,5.62.23,5.8.34.34.21,10.66-7.51,10.66-7.51l3.84-2.73s2.13-3.24,2.13-3.58v-2.39s-.55-2.8-.6-3.21-.6-2.93-.6-2.93l-3.67-.6Z"/>
  <path class="cls-7" d="M64.48,272.27s1.32.64,1.54.68,5.46-.68,5.46-.68l1.58,3.53,4.39,6.37s2.18,1.79,2.56,2.22,2.82,7.42,2.82,7.42c0,0,.74,2.29-.77,3.07-1.67.86-5.62.23-5.8.34-.34.21-10.66-7.51-10.66-7.51l-3.84-2.73s-2.13-3.24-2.13-3.58v-2.39s.55-2.8.6-3.21.6-2.93.6-2.93l3.67-.6Z"/>
  <path class="cls-6" d="M24.84,269.8s-4.95,1.71-7.51,1.71h-2.56l-3.24-3.75,2.39-34.81,4.27-19.79v-56.99l3.24-16.04h19.45l16.72-4.44h15.01l8.19,1.53,5.46,2.91v14.33l-4.78,12.63-3.75,21.16-2.39,10.92v13.31l1.02,14.33-1.71,15.7-2.05,13.31.34,9.21s-1.19,2.39-6.14,2.39-8.19-3.07-8.19-3.07l.68-15.01-1.71-16.38-1.36-15.7.68-7.85-2.39-5.8.68-22.52-2.73-13.99-3.07,6.82-3.75,12.28-5.46,15.7-1.02,7.51-4.09,9.55-1.71,13.31-1.71,9.55-2.73,8.19-1.02,7.85-2.39,6.82-.68,5.12Z"/>
  <polygon class="cls-8" points="16.99 154.81 55.21 159.58 56.91 129.55 59.98 156.85 87.62 153.78 87.62 137.23 84.21 120.34 83.87 96.45 85.92 77 87.62 54.82 74.32 50.05 64.76 50.05 66.13 59.6 64.42 74.96 63.57 84.74 63.06 97.48 58.96 110.1 57.25 113.86 55.55 108.06 54.87 93.38 52.31 84.17 45.31 63.01 42.58 58.92 42.92 50.05 33.37 50.05 19.72 53.8 23.13 78.37 26.88 91.34 27.23 101.57 25.18 114.54 20.74 128.53 16.99 154.81"/>
  <polygon class="cls-1" points="39.68 56.19 44.29 63.18 53.33 66.94 63.23 64.21 67.15 60.11 68.17 54.82 68.17 51.07 63.74 49.02 62.03 46.46 61.52 41.52 63.23 35.72 63.91 31.11 64.51 22.75 59.9 10.38 55.89 8.93 49.41 8.93 43.95 11.66 39.68 16.09 39.68 23.26 39.68 30.09 40.88 36.57 44.12 40.32 43.78 46.46 43.95 50.22 39.68 50.73 39.68 56.19"/>
  <path class="cls-4" d="M40.74,108.06s4.24,4.32,4.29,7.17c.05,3.07-2.24,7.17-2.24,7.17l-4.13-2.5s-3.58-5.74-3.58-6.03,5.67-5.8,5.67-5.8Z"/>
  <path class="cls-4" d="M77.28,120.05s-4.35-3.27-4.47-5.5c-.12-2.42,2.06-5.71,2.06-5.71l4.19,1.84s3.73,4.41,3.73,4.63-5.52,4.75-5.52,4.75Z"/>
  <path class="cls-1" d="M67.21,125.13c.39-.3.73-.68.88-1.15.13-.4.43-.73.83-.89l.13-.05c1.15-.45,2.08-1.33,2.6-2.45h0c.44-.95,1.39-1.55,2.44-1.55h1.36c.85,0,1.66-.41,2.16-1.09l2.73-3.71c.73-.99.69-2.35-.08-3.3l-.59-.73c-.7-.85-1.84-1.19-2.89-.86l-2.96.93c-1.16.37-2.41.33-3.55-.09l-1.61-.6c-1.35-.51-2.84-.54-4.21-.08l-2.46.82c-1.01.34-2.1.29-3.08-.13l-2.4-1.03c-.57-.24-1.18-.37-1.79-.37h-4.02c-.46,0-.92.06-1.36.18l-2.52.7c-1.16.32-2.36.48-3.56.48h-16.66c-1.49,0-2.69,1.2-2.69,2.69v1.07c0,1.36,1.02,2.51,2.37,2.67l14.17,1.7c.35.04.69.12,1.03.24l3.86,1.36c.93.33,1.7.98,2.18,1.84l1.34,2.41c.73,1.32,1.97,2.27,3.43,2.64l4.06,1.04c.22.06.44.08.67.08h3.07c.23,0,.45-.03.67-.08l3.82-.98c.34-.09.66-.24.94-.45l1.68-1.26Z"/>
  <path class="cls-8" d="M19.72,53.8l-4.86,4.86c-.17.17-.28.39-.31.62l-2.82,20.11-2.05,14.33-1.49,8.9-.79,4.48c-.07.4-.03.81.11,1.2l1.5,4.1,1.83,4.98c.13.35.43.61.8.69l8.93,1.91s.05.01.08.01l17.29,2.37s.1.01.15.01h1.8c.97,0,1.45-1.16.78-1.86-1.41-1.45-3-3.62-3-5.99,0-2.15.78-3.79,1.56-4.87.5-.71.05-1.69-.81-1.74l-3.62-.2c-.13,0-.25-.04-.37-.09l-8.72-3.74c-.4-.17-.66-.57-.66-1v-3.57c0-.1.01-.2.04-.29l2.66-9.59c.04-.14.05-.29.03-.43l-3.02-23.51c-.01-.1-.04-.2-.08-.29l-4.95-11.41Z"/>
  <path class="cls-8" d="M83.18,69.37l.06,24.69.97,8.87-9.21,5.8s4.44,2.22,4.44,5.46-2.39,6.14-2.39,6.14l11.94-1.36,5.8-5.8,3.41-7.51-2.73-12.63-3.75-21.5-1.71-14.67-3.47-3.2-3.36,15.7Z"/>
  <path class="cls-3" d="M63.06,46.98l10.92,2.39,4.44,13.36-9.9-2.67,8.53,6.94-8.19,17.18-7.35,18.09.58-15.07c0-.09,3.01-24.46,3.01-24.46l-2.05-15.75Z"/>
  <path class="cls-3" d="M41.56,46.98l-10.92,3.98v13.08l10.92-3.71-7.51,8.48,13.65,17.56,7.58,15.88-1.39-15.34c-.03-.36-.12-.71-.26-1.04l-6.62-15.7-4.78-15.36-.68-7.85Z"/>
  <path class="cls-5" d="M70.9,45.95c2.34-.5,3.2-1.43,3.53-1.14.41.37-.32,2.44-1.93,3.53-1.19.81-2.45.8-3.3.8-2.69-.02-4.58-1.43-5.23-1.93-.83-.64-1.74-1.34-2.27-2.62-.66-1.57-.34-3.05,0-4.66.29-1.37.5-1.41,1.36-4.09.6-1.88.82-7.08.34-8.99-1.45-5.75-.46-6.05-1.71-9.55-.58-1.62-1.46-4.02-3.64-6.37-.93-1.01-2.22-2.41-4.32-3.3-3.49-1.48-6.28-.32-6.6-1.25-.26-.78,1.47-2.27,3.18-2.84,2.07-.69,3.99-.02,5.35.45.56.19,1.81.68,3.18,1.71,1.06.79,1.79,1.61,3.3,3.64,2.01,2.71,3.01,4.06,3.75,5.46,1.2,2.25.85,2.42,2.62,6.82,1.11,2.76,1.31,2.87,2.62,6.14,1.65,4.15,1.83,5.25,1.82,6.37-.01,2.11-.66,3.87-.91,4.55-.42,1.12-.77,2.06-1.59,3.07-1.41,1.73-2.96,2.15-2.84,3.07.07.55.68.9.91,1.02.57.32,1.23.36,2.39.11Z"/>
  <path class="cls-9" d="M43.76,46.45c.19-.9.13-3.38.13-3.38.04-.35.02-.71-.07-1.05l-1.07-4.43-1.23-5.69c-.11-.52-.09-1.06.08-1.57l1.43-4.49c.04-.13.08-.27.1-.4l.61-3.53c.02-.13.05-.25.09-.37l1.18-3.83c.09-.28.21-.55.38-.79l2.07-3.1c.27-.41.64-.74,1.07-.98l6.24-3.42c.18-.1.38-.15.58-.15h.19c.67,0,1.21-.54,1.21-1.21h0c0-1.4-.95-2.61-2.3-2.95l-2.31-.58c-.11-.03-.23-.05-.34-.06l-5.28-.69c-.67-.09-1.35.05-1.93.39l-4.68,2.73c-.37.22-.7.51-.95.87l-3.93,5.53c-.2.28-.35.59-.44.91l-2.47,8.47c-.08.28-.12.56-.12.85v6.1c0,.08,0,.16,0,.25l.46,5.69c.03.33.11.66.24.96l1.97,4.54c.03.08.07.16.11.23l1.41,2.61c.74,1.37.36,3.14-.97,3.96-.45.28-.97.43-1.52.31-1.96-.43-3.67-2.05-2.9-2.9,1.11-2.4-.36-2.04-1.21-1.84-1.05.25-2.63.73-3.23,1.5-.58.74-.44,2.52-.25,3.77.13.84.61,1.58,1.32,2.05l.81.54c.76.51,1.7.64,2.57.38,0,0,7.66-1.17,8.86-1.3,1.55-.16,2.43-.48,2.83-.83,0,0,1.32-1.88,1.25-3.1Z"/>
</svg>