<?xml version="1.0" encoding="UTF-8"?>
<svg id="Layer_1" xmlns="http://www.w3.org/2000/svg" viewBox="0 0 84.4 277.99">
  <defs>
    <style>
      .cls-1 {
        fill: #ef3d3d;
      }

      .cls-2 {
        fill: #e5ab83;
      }

      .cls-3 {
        fill: #fff;
      }

      .cls-4 {
        fill: #e2d427;
      }

      .cls-5 {
        fill: #16161a;
        opacity: .7;
      }

      .cls-6 {
        fill: #1e1d1d;
      }

      .cls-7 {
        fill: #a8a7c1;
      }

      .cls-8 {
        fill: #1d1c39;
      }

      .cls-9 {
        fill: #29294f;
      }
    </style>
  </defs>
  <polygon points="10.58 259.84 10.58 266.56 16.49 275.6 26.05 276.63 33.73 276.63 32.36 269.29 42.94 270.14 51.47 272.19 61.71 273.04 67.68 272.87 68.87 270.82 67.34 268.23 62.73 265.36 59.32 265.02 54.54 261.27 50.27 258.2 38.33 258.2 33.21 257.52 31 259.73 24 259.73 17.52 259.05 10.58 259.84"/>
  <path class="cls-8" d="M10.92,261.84l-2.27-13.19,1.14-15.47-1.14-21.84v-42.54l-2.27-10.31,1.14-9.71,3.41-13.88,23.71-5.23,22.24-1.14h15.47l-6.14,38.67-4.09,12.28-3.87,14.56v10.69l-1.36,14.33-2.5,34.58.45,5-10.01,1.14-11.6-2.27s.23-7.17.23-7.73.23-12.51.23-12.51l.96-13.42-4.37,21.38-.23,10.24v7.96l-19.11-1.59Z"/>
  <polygon class="cls-3" points="45.5 124.89 72.34 128.53 68.93 54.37 62.1 42.54 55.05 40.95 49.82 42.31 39.36 31.62 35.72 33.21 45.5 124.89"/>
  <path class="cls-7" d="M37.12,40.71l8.49,6.95,5-5.35-4.66,6.6c-.41.42-1.07.46-1.52.08l-7.32-8.28Z"/>
  <path class="cls-9" d="M4.55,122.76l-.46-9.93-1.82-19.79v-16.83l2.27-13.42,1.82-8.64.91-7.73,28.44-13.19s19.34,34.58,22.52,50.05c3.18,15.47,3.87,26.16,3.87,26.16l-2.5,22.52-3.64,16.15s-1.25,8.42-8.87,9.78-17.52,0-17.52,0l-25.02-5v-30.11,30.11"/>
  <path class="cls-9" d="M58.24,39.36l14.56,5.69s6.26,26.5,6.14,27.07,3.18,41.86,3.18,41.86c0,0,.11,13.31,0,13.88s-5,13.65-5,13.65l-6.91,7.28v-60.28l-1.5-15.92-10.46-33.21Z"/>
  <polygon class="cls-1" points="47.59 42.59 50.32 48.24 50.32 55.07 52.82 67.91 56.24 82.64 60.1 127.12 64.2 131.94 68.21 126.29 68.21 98.43 63.06 78.54 57.9 59.53 55.1 50.29 53.51 46.44 53.51 42.59 47.59 42.59"/>
  <polygon class="cls-2" points="36.55 31.93 49.82 42.31 55.05 40.95 59.38 39.8 62.79 35.26 64.27 29.35 63.36 16.15 62.1 12.28 58.81 10.35 51.81 10.81 47.77 12.63 44.59 13.19 39.36 17.29 38.79 20.25 35.15 20.93 35.72 25.71 36.55 31.93"/>
  <path class="cls-4" d="M37.42,30.6l-1.71,2.62-3.53-2.05-2.05-9.33.57-11.49,4.44-5.35,5.57-2.96h14.9s7.56.97,7.85,1.25,4.44,5.57,4.44,5.57l-2.84,3.41-5.16,1.25-8.49.11-7.28,2.16-4.44,11.37-2.27,3.41Z"/>
  <path class="cls-5" d="M23.47,69.23l-3.2,17.93c-.01.07-.01.15,0,.22l3.63,28.19,3.58,21.38-3.6-44.94c0-.07,0-.14.01-.21l3.54-16.5c.03-.15.02-.3-.04-.44l-2.53-5.79c-.29-.66-1.25-.54-1.37.16Z"/>
  <path class="cls-6" d="M27.24,135.61s-17.06,3.93-18.26,5.72,0,4.95,0,4.95l4.78.68,13.7-4.95,1.14-2.56-1.36-3.84Z"/>
  <polygon class="cls-2" points="26.04 135.89 18.53 137.8 11.45 140 12.49 145.45 13.34 149.37 17.43 151.73 21.95 152.08 23.55 155.66 26.82 154.49 28.02 148.52 26.04 135.89"/>
</svg>