<?xml version="1.0" encoding="UTF-8"?>
<svg id="Layer_1" xmlns="http://www.w3.org/2000/svg" viewBox="0 0 604.66 311.2">
  <defs>
    <style>
      .cls-1 {
        fill: #44354c;
      }
    </style>
  </defs>
  <polygon class="cls-1" points="456.44 175.55 456.44 152.6 439.73 175.55 456.44 175.55"/>
  <path class="cls-1" d="M507.55,116.8l-219.75-1.71v-7.51s.34-2.9-4.44-5.46c-4.78-2.56-8.19-1.02-8.19-1.02l-18.76.36c-20.28-42.73-63.82-72.29-114.27-72.29-69.82,0-126.43,56.6-126.43,126.43s56.6,126.43,126.43,126.43c45.94,0,86.15-24.5,108.29-61.15,9.8-.03,23.54-.16,27.48-.69,6.31-.85,5.46-7.17,5.46-7.17l1.02-6.82h2.84v-11.82c11.11-8.99,21.61-19.89,21.61-32.57,0-5.86-2.8-9.68-8.22-9.68-4.73,0-7.96,1.09-10.24,2.86h-.96v-11.85c2.97-2.18,8.4-3.95,15.05-3.95,13.21,0,18.55,7.22,18.55,19.49,0,14.99-9.8,24.53-17.94,29.84h22.23v17.51l24.69-.1c-11.77-2.3-19.54-13.86-19.54-33.63,0-22.07,9.8-34.47,24.06-34.47s23.98,11.31,23.98,33.93c0,19.4-8.25,31.67-19.62,34.14l10.18-.04,15.13.13v-11.61c11.11-8.99,21.61-19.89,21.61-32.57,0-5.86-2.8-9.68-8.22-9.68-4.73,0-7.96,1.09-10.24,2.86h-.96v-11.85c2.97-2.18,8.4-3.95,15.05-3.95,13.21,0,18.55,7.22,18.55,19.49,0,14.99-9.8,24.53-17.94,29.84h22.23v17.83l22.6.2,7.58-.23v-20.32h-26.6v-8.27l29.32-39.88h10.41v37.72h9.89v10.44h-9.89v19.92l1.47-.05,64.83-62.79v-9.55l-28.32-16.72ZM85.75,188.93c-20.07,0-36.33-16.27-36.33-36.33s16.27-36.33,36.33-36.33,36.33,16.27,36.33,36.33-16.27,36.33-36.33,36.33Z"/>
  <path class="cls-1" d="M356.52,147.91c-6.3,0-9.71,6.54-9.71,24.39s3.41,23.98,9.71,23.98,9.63-6.13,9.63-23.98-3.41-24.39-9.63-24.39Z"/>
</svg>