<?xml version="1.0" encoding="UTF-8"?>
<svg id="Layer_1" xmlns="http://www.w3.org/2000/svg" viewBox="0 0 604.66 311.2">
  <defs>
    <style>
      .cls-1, .cls-2 {
        fill: #44354c;
      }

      .cls-3 {
        letter-spacing: 0em;
      }

      .cls-2 {
        font-family: Brando-Text, Brando;
        font-size: 26.52px;
      }

      .cls-4 {
        fill: #d0add1;
      }

      .cls-5 {
        letter-spacing: 0em;
      }

      .cls-6 {
        letter-spacing: 0em;
      }
    </style>
  </defs>
  <g>
    <path class="cls-4" d="M457.19,187.31c0-10.61-2.1-14.5-5.94-14.5s-5.99,3.89-5.99,14.5,2.1,14.26,5.99,14.26,5.94-3.64,5.94-14.26Z"/>
    <polygon class="cls-4" points="512.88 189.24 512.88 175.6 502.57 189.24 512.88 189.24"/>
    <path class="cls-4" d="M566.75,108.44l-251.97-1.89v-8.3s.39-3.21-5.09-6.03c-5.48-2.83-9.39-1.13-9.39-1.13l-21.51.4C241.89,16.57,137.85-21.69,41.57,48.98c-91.08,115.24-7.81,242.06,106.19,242.06,52.67,0,98.78-27.08,124.17-67.57,11.23-.03,26.99-.18,31.5-.76,7.24-.94,6.26-7.92,6.26-7.92l1.17-7.54,97.65-.37v-6.43c6.85-5.35,13.33-11.82,13.33-19.36,0-3.48-1.73-5.75-5.07-5.75-2.92,0-4.91.65-6.31,1.7h-.59v-7.05c1.83-1.3,5.18-2.35,9.28-2.35,8.15,0,11.44,4.29,11.44,11.58,0,8.91-6.05,14.58-11.06,17.74h13.71v10.11l14.66.12c-6.94-1.61-11.48-8.42-11.48-19.87,0-13.12,6.05-20.49,14.84-20.49s14.79,6.72,14.79,20.17c0,11.41-4.98,18.67-11.88,20.24l15.39.13v-6.93c6.85-5.35,13.33-11.82,13.33-19.36,0-3.48-1.73-5.75-5.07-5.75-2.92,0-4.91.65-6.31,1.7h-.59v-7.05c1.83-1.3,5.18-2.35,9.28-2.35,8.15,0,11.44,4.29,11.44,11.58,0,8.91-6.05,14.58-11.06,17.74h13.71v10.61h-1.14l6.33.05,13.42-.4v-11.77h-16.41v-4.92l18.08-23.71h6.42v22.42h6.1v6.2h-6.1v11.53l3.91-.12,74.34-69.38v-10.56l-32.48-18.48ZM113.62,177.42c-44.59,32.73-95-15.85-61.03-58.82,44.59-32.73,95,15.85,61.03,58.82Z"/>
  </g>
  <g>
    <text class="cls-2" transform="translate(282.82 129.83)"><tspan x="0" y="0" xml:space="preserve">The  </tspan></text>
    <text class="cls-2" transform="translate(355.39 156.86)"><tspan class="cls-6" x="0" y="0">K</tspan><tspan class="cls-3" x="17.74" y="0">e</tspan><tspan x="30.87" y="0">y(</tspan><tspan class="cls-5" x="54.9" y="0">w</tspan><tspan x="74.9" y="0">o</tspan><tspan class="cls-3" x="89.43" y="0">r</tspan><tspan x="99.27" y="0">d)s o</tspan><tspan class="cls-6" x="157.33" y="0">f</tspan><tspan x="165.84" y="0"> </tspan></text>
    <text class="cls-2" transform="translate(249.84 190.62)"><tspan x="0" y="0">the Election</tspan></text>
  </g>
  <g>
    <path class="cls-1" d="M217.12,160.8c.14.15.24.28.35.38,2.24,2.02,4.48,4.04,6.73,6.04.37.33.53.66.53,1.17-.02,4.27-.02,8.55,0,12.82,0,.56-.17.8-.7.96-4.95,1.56-9.98,1.88-15.04.78-6.55-1.42-11.34-5.11-13.69-11.53-2.08-5.68-1.82-11.45-.27-17.2.06-.23.34-.47.58-.58,1.76-.8,3.54-1.57,5.31-2.35.18-.08.36-.12.63-.21v28.43c.22-.07.37-.11.52-.17,3.98-1.75,7.96-3.51,11.95-5.25.43-.19.55-.43.55-.88-.01-9.26,0-18.51-.01-27.77,0-.24-.02-.47-.04-.81-6.38,2.85-12.66,5.65-19.09,8.52,2-5.57,5.63-9.45,10.62-12.17-.26-.07-.47-.06-.67,0-5.88,1.42-11.2,3.96-15.73,8.02-7.33,6.56-10.2,14.72-8.35,24.39,1.41,7.39,5.4,13.21,11.62,17.39,8.04,5.4,16.89,6.8,26.27,4.72,7.15-1.59,12.58-5.63,16.1-12.1,2.48-4.56,3.44-9.52,3.64-14.65.01-.32,0-.65,0-.97l-.23-.12c-2.55,6.47-6.77,11.3-13.29,14.02-.03-.21-.05-.3-.05-.39,0-4.39,0-8.78.01-13.16,0-.27.2-.6.41-.79,1.03-.97,2.1-1.9,3.16-2.84,1.34-1.2,2.67-2.41,4.04-3.65-.2-.19-.34-.33-.49-.47-2.22-1.97-4.43-3.95-6.67-5.91-.34-.3-.48-.61-.48-1.06.02-2.79,0-5.58.01-8.36,0-.2.02-.4.04-.63.43-.05.82-.07,1.2-.14,5.76-.96,9.95-5,10.53-10.63.3-2.95-.3-5.73-2.35-7.96-3.52-3.83-7.97-4.97-13.01-4.13-.19.03-.35.21-.53.32.03.07.05.13.08.2.26-.01.53,0,.79-.04,1.18-.2,2.32-.04,3.44.33,1.85.61,2.86,1.96,2.88,3.8.02,1.81-1.1,3.38-2.85,4.02-1.29.47-2.64.45-3.92.2-2.27-.44-4.52-1.01-6.73-1.69-4.32-1.34-8.5-3.12-12.98-3.92-3.03-.54-6.05-.73-9.07.06-5.94,1.54-10.94,6.84-10.53,13.48.13,2.06.66,3.99,2.01,5.63,1.47,1.78,3.45,2.71,5.55,3.48.06.02.16-.04.35-.09-.17-.19-.27-.32-.4-.43-1.69-1.36-2.09-3.18-1.63-5.17.64-2.8,3.37-4.34,6.14-4.22,1.94.08,3.91.37,5.79.87,4.28,1.16,8.49,2.56,12.76,3.75,2.82.79,5.68,1.43,8.54,2.05,1.05.23,2.16.22,3.29.32,0,3.12,0,6.23-.02,9.33,0,.21-.19.46-.36.61-.9.81-1.82,1.6-2.73,2.39-1.49,1.31-2.99,2.61-4.5,3.94Z"/>
    <path class="cls-1" d="M217.12,160.8c1.52-1.33,3.01-2.63,4.5-3.94.91-.8,1.83-1.58,2.73-2.39.17-.15.36-.4.36-.61.02-3.1.02-6.21.02-9.33-1.13-.1-2.23-.09-3.29-.32-2.86-.62-5.72-1.26-8.54-2.05-4.27-1.19-8.48-2.6-12.76-3.75-1.87-.51-3.85-.79-5.79-.87-2.77-.12-5.5,1.42-6.14,4.22-.46,1.99-.06,3.81,1.63,5.17.13.1.23.24.4.43-.19.05-.29.11-.35.09-2.1-.77-4.08-1.71-5.55-3.48-1.35-1.64-1.88-3.56-2.01-5.63-.41-6.64,4.59-11.94,10.53-13.48,3.02-.79,6.05-.6,9.07-.06,4.48.8,8.66,2.58,12.98,3.92,2.21.68,4.46,1.25,6.73,1.69,1.28.25,2.63.26,3.92-.2,1.75-.63,2.87-2.2,2.85-4.02-.02-1.83-1.03-3.19-2.88-3.8-1.12-.37-2.26-.53-3.44-.33-.26.04-.53.03-.79.04-.03-.07-.05-.13-.08-.2.18-.11.34-.29.53-.32,5.04-.85,9.48.3,13.01,4.13,2.05,2.23,2.66,5.01,2.35,7.96-.58,5.63-4.77,9.67-10.53,10.63-.38.06-.77.09-1.2.14-.02.23-.04.43-.04.63,0,2.79,0,5.58-.01,8.36,0,.45.14.76.48,1.06,2.23,1.96,4.45,3.93,6.67,5.91.15.13.29.28.49.47-1.37,1.23-2.7,2.44-4.04,3.65-1.05.95-2.12,1.88-3.16,2.84-.21.19-.41.52-.41.79-.02,4.39-.02,8.78-.01,13.16,0,.09.02.18.05.39,6.52-2.72,10.75-7.55,13.29-14.02l.23.12c0,.32.01.65,0,.97-.2,5.14-1.16,10.09-3.64,14.65-3.52,6.48-8.95,10.52-16.1,12.1-9.38,2.08-18.23.69-26.27-4.72-6.22-4.18-10.21-10.01-11.62-17.39-1.85-9.67,1.02-17.83,8.35-24.39,4.53-4.05,9.85-6.6,15.73-8.02.2-.05.41-.06.67,0-5,2.72-8.62,6.6-10.62,12.17,6.43-2.87,12.71-5.67,19.09-8.52.02.34.04.58.04.81,0,9.26,0,18.51.01,27.77,0,.45-.11.69-.55.88-3.99,1.73-7.96,3.5-11.95,5.25-.14.06-.29.1-.52.17v-28.43c-.27.09-.45.13-.63.21-1.77.78-3.55,1.55-5.31,2.35-.24.11-.52.35-.58.58-1.55,5.76-1.81,11.53.27,17.2,2.36,6.41,7.14,10.1,13.69,11.53,5.06,1.1,10.09.78,15.04-.78.52-.17.7-.4.7-.96-.03-4.27-.02-8.55,0-12.82,0-.51-.16-.84-.53-1.17-2.26-2-4.49-4.02-6.73-6.04-.11-.1-.21-.23-.35-.38Z"/>
  </g>
</svg>