<?xml version="1.0" encoding="UTF-8"?>
<svg id="Layer_1" xmlns="http://www.w3.org/2000/svg" viewBox="0 0 604.66 311.2">
  <defs>
    <style>
      .cls-1 {
        letter-spacing: 0em;
      }

      .cls-2 {
        font-size: 26px;
        glyph-orientation-vertical: 0deg;
        letter-spacing: 0em;
        opacity: .97;
        text-orientation: upright;
        writing-mode: tb;
      }

      .cls-2, .cls-3 {
        fill: #44354c;
        font-family: Brando-Text, Brando;
      }

      .cls-3 {
        font-size: 26.52px;
      }

      .cls-4 {
        letter-spacing: 0em;
      }

      .cls-5 {
        letter-spacing: 0em;
      }

      .cls-6 {
        fill: #d0add1;
      }
    </style>
  </defs>
  <g>
    <path class="cls-6" d="M444.72,189.98c0-10.61-2.03-14.5-5.72-14.5s-5.77,3.89-5.77,14.5,2.03,14.26,5.77,14.26,5.72-3.64,5.72-14.26Z"/>
    <polygon class="cls-6" points="498.39 191.91 498.39 178.27 488.45 191.91 498.39 191.91"/>
    <path class="cls-6" d="M550.31,111.11l-242.84-1.89v-8.3s.37-3.21-4.91-6.03c-5.28-2.83-9.05-1.13-9.05-1.13l-20.73.4C237.22,19.24,136.96-19.02,44.16,51.65c-87.78,115.24-7.53,242.06,102.34,242.06,50.76,0,95.2-27.08,119.67-67.57,10.83-.03,26.01-.18,30.36-.76,6.98-.94,6.03-7.92,6.03-7.92l1.13-7.54,94.11-.37v-6.43c6.61-5.35,12.85-11.82,12.85-19.36,0-3.48-1.66-5.75-4.89-5.75-2.81,0-4.73.65-6.09,1.7h-.57v-7.05c1.77-1.3,4.99-2.35,8.95-2.35,7.85,0,11.03,4.29,11.03,11.58,0,8.91-5.83,14.58-10.66,17.74h13.21v10.11l14.13.12c-6.69-1.61-11.07-8.42-11.07-19.87,0-13.12,5.83-20.49,14.3-20.49s14.25,6.72,14.25,20.17c0,11.41-4.8,18.67-11.45,20.24l14.83.13v-6.93c6.61-5.35,12.85-11.82,12.85-19.36,0-3.48-1.66-5.75-4.89-5.75-2.81,0-4.73.65-6.09,1.7h-.57v-7.05c1.77-1.3,4.99-2.35,8.95-2.35,7.85,0,11.03,4.29,11.03,11.58,0,8.91-5.83,14.58-10.66,17.74h13.21v10.61h-1.1l6.1.05,12.94-.4v-11.77h-15.81v-4.92l17.43-23.71h6.19v22.42h5.88v6.2h-5.88v11.53l3.77-.12,71.65-69.38v-10.56l-31.3-18.48ZM113.6,180.09c-42.98,32.73-91.56-15.85-58.82-58.82,42.98-32.73,91.56,15.85,58.82,58.82Z"/>
  </g>
  <g>
    <text class="cls-3" transform="translate(251.21 124.32)"><tspan x="0" y="0" xml:space="preserve">The  </tspan></text>
    <text class="cls-3" transform="translate(251.21 158.86)"><tspan class="cls-4" x="0" y="0">K</tspan><tspan class="cls-1" x="17.74" y="0">e</tspan><tspan x="30.87" y="0">y(</tspan><tspan class="cls-5" x="54.9" y="0">w</tspan><tspan x="74.9" y="0">o</tspan><tspan class="cls-1" x="89.43" y="0">r</tspan><tspan x="99.27" y="0">d)s o</tspan><tspan class="cls-4" x="157.33" y="0">f</tspan><tspan x="165.84" y="0"> </tspan></text>
    <text class="cls-3" transform="translate(251.21 200.42)"><tspan x="0" y="0">the Election</tspan></text>
  </g>
  <text class="cls-2" transform="translate(205.64 118.25)"><tspan x="0" y="0">NYT</tspan></text>
</svg>